<svg width="48" height="24" viewBox="0 0 48 24" fill="none" xmlns="http://www.w3.org/2000/svg">
<path d="M9.904 18H4.864C3.53067 18 2.53867 17.7333 1.888 17.2C1.248 16.6667 0.928 15.8453 0.928 14.736V9.744C0.928 8.63467 1.248 7.81333 1.888 7.28C2.53867 6.74667 3.53067 6.48 4.864 6.48H8.864C9.06667 6.48 9.21067 6.528 9.296 6.624C9.392 6.70933 9.44 6.85333 9.44 7.056V8.992C9.44 9.19467 9.392 9.344 9.296 9.44C9.21067 9.52533 9.06667 9.568 8.864 9.568H5.536C5.20533 9.568 4.96 9.63733 4.8 9.776C4.64 9.904 4.56 10.1013 4.56 10.368V14.192C4.56 14.4587 4.61867 14.656 4.736 14.784C4.864 14.912 5.05067 14.976 5.296 14.976H6.848V12.48C6.848 12.2773 6.89067 12.1333 6.976 12.048C7.072 11.952 7.22133 11.904 7.424 11.904H9.904C10.1067 11.904 10.2507 11.952 10.336 12.048C10.432 12.1333 10.48 12.2773 10.48 12.48V17.424C10.48 17.6267 10.432 17.776 10.336 17.872C10.2507 17.9573 10.1067 18 9.904 18Z" fill="#1E0536"/>
<path d="M14.424 18C14.2213 18 14.072 17.9573 13.976 17.872C13.8907 17.776 13.848 17.6267 13.848 17.424V15.52C13.848 15.3173 13.8907 15.1733 13.976 15.088C14.072 14.992 14.2213 14.944 14.424 14.944H16.008V9.568H14.424C14.2213 9.568 14.072 9.52533 13.976 9.44C13.8907 9.344 13.848 9.19467 13.848 8.992V7.056C13.848 6.85333 13.8907 6.70933 13.976 6.624C14.072 6.528 14.2213 6.48 14.424 6.48H21.24C21.4427 6.48 21.5867 6.528 21.672 6.624C21.768 6.70933 21.816 6.85333 21.816 7.056V8.992C21.816 9.19467 21.768 9.344 21.672 9.44C21.5867 9.52533 21.4427 9.568 21.24 9.568H19.688V14.944H21.24C21.4427 14.944 21.5867 14.992 21.672 15.088C21.768 15.1733 21.816 15.3173 21.816 15.52V17.424C21.816 17.6267 21.768 17.776 21.672 17.872C21.5867 17.9573 21.4427 18 21.24 18H14.424Z" fill="#1E0536"/>
<path d="M38.36 14.976H42.376C42.632 14.976 42.7973 14.928 42.872 14.832C42.9467 14.736 42.984 14.624 42.984 14.496V14.064C42.984 13.936 42.9467 13.8293 42.872 13.744C42.7973 13.648 42.632 13.6 42.376 13.6H39.656C39.4533 13.6 39.304 13.5573 39.208 13.472C39.1227 13.376 39.08 13.2267 39.08 13.024V11.312C39.08 11.1093 39.1227 10.9653 39.208 10.88C39.304 10.784 39.4533 10.736 39.656 10.736H41.336C41.592 10.736 41.7573 10.688 41.832 10.592C41.9067 10.496 41.944 10.384 41.944 10.256V10.016C41.944 9.888 41.9067 9.776 41.832 9.68C41.7573 9.584 41.592 9.536 41.336 9.536H38.36C38.1573 9.536 38.008 9.49333 37.912 9.408C37.8267 9.312 37.784 9.16267 37.784 8.96V7.056C37.784 6.85333 37.8267 6.70933 37.912 6.624C38.008 6.528 38.1573 6.48 38.36 6.48H42.824C43.7093 6.48 44.3653 6.688 44.792 7.104C45.2293 7.50933 45.448 8.064 45.448 8.768V9.696C45.448 10.1013 45.3787 10.4533 45.24 10.752C45.1013 11.0507 44.856 11.2747 44.504 11.424C45.2613 11.5093 45.784 11.744 46.072 12.128C46.3707 12.5013 46.52 13.04 46.52 13.744V15.344C46.52 16.1653 46.2587 16.816 45.736 17.296C45.2133 17.7653 44.44 18 43.416 18H38.36C38.1573 18 38.008 17.9573 37.912 17.872C37.8267 17.776 37.784 17.6267 37.784 17.424V15.552C37.784 15.3493 37.8267 15.2053 37.912 15.12C38.008 15.024 38.1573 14.976 38.36 14.976Z" fill="#1E0536"/>
<path d="M34.4322 12.3889L33.0753 15.4041C33.0267 15.5121 32.9413 15.5994 32.8343 15.6503L30.0944 16.955C30.0353 16.9832 29.9661 16.9806 29.9092 16.9481L27.5898 15.6228C27.5306 15.5889 27.4789 15.5433 27.4379 15.4886L25.2 12.5048C25.0702 12.3317 25 12.1211 25 11.9048V8.17125C25 7.55644 25.5496 7.08723 26.1568 7.18361L27.7376 7.43454C27.9017 7.46058 28.0421 7.5664 28.1123 7.71692L29.9094 11.5677C29.9453 11.6447 30.0547 11.6447 30.0906 11.5677L31.8877 7.71692C31.9579 7.5664 32.0983 7.46059 32.2624 7.43454L33.7251 7.20237C34.3707 7.09988 34.9395 7.63427 34.8773 8.28502L34.5157 12.0735C34.5053 12.1825 34.4771 12.289 34.4322 12.3889Z" fill="#EF1111"/>
<path d="M33.0753 15.4041L33.7592 15.7119L33.7592 15.7119L33.0753 15.4041ZM34.4322 12.3889L35.1161 12.6966L35.1161 12.6966L34.4322 12.3889ZM34.5157 12.0735L35.2623 12.1448L35.2623 12.1448L34.5157 12.0735ZM34.8773 8.28502L34.1307 8.21376L34.1307 8.21376L34.8773 8.28502ZM33.7251 7.20237L33.6075 6.46164L33.6075 6.46164L33.7251 7.20237ZM32.2624 7.43454L32.3799 8.17527L32.3799 8.17527L32.2624 7.43454ZM31.8877 7.71692L31.208 7.39976L31.208 7.39976L31.8877 7.71692ZM30.0906 11.5677L30.7703 11.8849L30.7703 11.8849L30.0906 11.5677ZM29.9094 11.5677L30.589 11.2506L30.589 11.2506L29.9094 11.5677ZM28.1123 7.71692L28.792 7.39976L28.792 7.39976L28.1123 7.71692ZM27.7376 7.43454L27.6201 8.17527L27.6201 8.17527L27.7376 7.43454ZM26.1568 7.18361L26.2743 6.44289L26.1568 7.18361ZM25.2 12.5048L24.6 12.9548L24.6 12.9548L25.2 12.5048ZM27.4379 15.4886L28.0379 15.0386L28.0379 15.0386L27.4379 15.4886ZM27.5898 15.6228L27.9619 14.9716L27.9619 14.9716L27.5898 15.6228ZM29.9092 16.9481L29.5371 17.5993L29.5371 17.5993L29.9092 16.9481ZM30.0944 16.955L30.4169 17.6322L30.4169 17.6322L30.0944 16.955ZM32.8343 15.6503L33.1568 16.3275L33.1568 16.3275L32.8343 15.6503ZM33.7592 15.7119L35.1161 12.6966L33.7482 12.0811L32.3914 15.0963L33.7592 15.7119ZM35.2623 12.1448L35.6239 8.35629L34.1307 8.21376L33.7691 12.0023L35.2623 12.1448ZM33.6075 6.46164L32.1448 6.69382L32.3799 8.17527L33.8427 7.94309L33.6075 6.46164ZM31.208 7.39976L29.411 11.2506L30.7703 11.8849L32.5673 8.03408L31.208 7.39976ZM30.589 11.2506L28.792 7.39976L27.4327 8.03408L29.2297 11.8849L30.589 11.2506ZM27.8552 6.69382L26.2743 6.44289L26.0392 7.92434L27.6201 8.17527L27.8552 6.69382ZM24.25 8.17125V11.9048H25.75V8.17125H24.25ZM24.6 12.9548L26.8379 15.9386L28.0379 15.0386L25.8 12.0548L24.6 12.9548ZM27.2177 16.2739L29.5371 17.5993L30.2813 16.2969L27.9619 14.9716L27.2177 16.2739ZM30.4169 17.6322L33.1568 16.3275L32.5119 14.9732L29.772 16.2779L30.4169 17.6322ZM29.5371 17.5993C29.8073 17.7537 30.1359 17.766 30.4169 17.6322L29.772 16.2779C29.9346 16.2004 30.1249 16.2076 30.2813 16.2969L29.5371 17.5993ZM24.25 11.9048C24.25 12.2834 24.3728 12.6518 24.6 12.9548L25.8 12.0548C25.7675 12.0115 25.75 11.9589 25.75 11.9048H24.25ZM26.2743 6.44289C25.2117 6.27422 24.25 7.09533 24.25 8.17125H25.75C25.75 8.01755 25.8874 7.90024 26.0392 7.92434L26.2743 6.44289ZM28.792 7.39976C28.6164 7.02345 28.2653 6.75892 27.8552 6.69382L27.6201 8.17527C27.538 8.16225 27.4678 8.10935 27.4327 8.03408L28.792 7.39976ZM29.411 11.2506C29.6444 10.7504 30.3556 10.7504 30.589 11.2506L29.2297 11.8849C29.535 12.539 30.465 12.5389 30.7703 11.8849L29.411 11.2506ZM32.1448 6.69382C31.7347 6.75892 31.3836 7.02345 31.208 7.39976L32.5673 8.03408C32.5322 8.10935 32.462 8.16225 32.3799 8.17527L32.1448 6.69382ZM35.6239 8.35629C35.7327 7.21747 34.7374 6.2823 33.6075 6.46164L33.8427 7.94309C34.0041 7.91747 34.1463 8.05107 34.1307 8.21376L35.6239 8.35629ZM35.1161 12.6966C35.1947 12.5219 35.2441 12.3355 35.2623 12.1448L33.7691 12.0022C33.7665 12.0295 33.7594 12.0561 33.7482 12.0811L35.1161 12.6966ZM32.3914 15.0963C32.4157 15.0423 32.4584 14.9987 32.5119 14.9732L33.1568 16.3275C33.4242 16.2001 33.6377 15.982 33.7592 15.7119L32.3914 15.0963ZM26.8379 15.9386C26.9403 16.0752 27.0696 16.1893 27.2177 16.274L27.9619 14.9716C27.9916 14.9885 28.0174 15.0113 28.0379 15.0386L26.8379 15.9386Z" fill="#1E0536"/>
</svg>
